/* XPM */
static const char *WxFrameFrm_WxFrameFrm_XPM[]={
/* WxFrameFrm_WxFrameFrm */
"32 32 20 1",
"      c None",
"0     c #868686",
"1     c #E7E7D6",
"2     c #C0C0C0",
"3     c #000000",
"4     c #F8F8F8",
"5     c #666666",
"6     c #FFFBF0",
"7     c #003366",
"8     c #3333CC",
"9     c #0066CC",
"a     c #330099",
"b     c #0066FF",
"c     c #6699FF",
"d     c #999999",
"e     c #33FF66",
"f     c #008000",
"g     c #CCCCCC",
"h     c #ADA990",
"i     c #555555",
"         000000000000000000     ",
"        01222222222222222203    ",
"       014444444444444444053    ",
"      0111111111111111112553    ",
"      0610000000000000012553    ",
"      0617777777777777712553    ",
"      06178989888a88a8a12553    ",
"      06179bcb98888a8aa12553    ",
"      06178c4c898888a8a12553    ",
"      06179bcb98888a8aa12553    ",
"      061789898888a8a8a12553    ",
"      0617889888888a8aa12553    ",
"      0617888888a8a8a8a12553    ",
"      0617888a8a8a8a8aa12553    ",
"      061aaaaaaaaaaaaaa12553    ",
"      0611111111111111112553    ",
"      062222222222222222255355  ",
"      0555555555555555555535523 ",
"      3333333333333333333355253 ",
"     d5555555555555555555552553 ",
"     d1111111111111111111445553 ",
"     d1eef1ggg222hhhdddddd05553 ",
"     d1fffggg222hhh000000005553 ",
"     d11ggg2222hhhd333333iiiiii ",
"    ddddddddddddddddddd02442042i",
"   d4231231234h31231h30000000003",
"  d4231231234h31h312302444442h03",
" d42302302302302302302444442h003",
"d1111111111111111111i211112h003 ",
"ddddddddddddddddddddih2222h003  ",
"d3333333333333333333i0hhhh033   ",
"                     333333     "};

